<svg width="17" height="16" viewBox="0 0 17 16" fill="none" xmlns="http://www.w3.org/2000/svg">
<g clip-path="url(#clip0_16_125)">
<path d="M8.91637 11C9.04898 11 9.17616 10.9473 9.26993 10.8536C9.36369 10.7598 9.41637 10.6326 9.41637 10.5V6.70701L10.5624 7.85401C10.6563 7.9479 10.7836 8.00064 10.9164 8.00064C11.0491 8.00064 11.1765 7.9479 11.2704 7.85401C11.3643 7.76012 11.417 7.63278 11.417 7.50001C11.417 7.36723 11.3643 7.2399 11.2704 7.14601L9.27037 5.14601C9.22393 5.09945 9.16875 5.0625 9.10801 5.0373C9.04726 5.01209 8.98214 4.99911 8.91637 4.99911C8.85061 4.99911 8.78548 5.01209 8.72474 5.0373C8.66399 5.0625 8.60882 5.09945 8.56237 5.14601L6.56237 7.14601C6.46849 7.2399 6.41574 7.36723 6.41574 7.50001C6.41574 7.63278 6.46849 7.76012 6.56237 7.85401C6.65626 7.9479 6.7836 8.00064 6.91637 8.00064C7.04915 8.00064 7.17649 7.9479 7.27037 7.85401L8.41637 6.70701V10.5C8.41637 10.6326 8.46905 10.7598 8.56282 10.8536C8.65659 10.9473 8.78376 11 8.91637 11Z" fill="#1D1929"/>
<path d="M4.91638 0C4.38595 0 3.87724 0.210714 3.50217 0.585786C3.1271 0.960859 2.91638 1.46957 2.91638 2V14C2.91638 14.5304 3.1271 15.0391 3.50217 15.4142C3.87724 15.7893 4.38595 16 4.91638 16H12.9164C13.4468 16 13.9555 15.7893 14.3306 15.4142C14.7057 15.0391 14.9164 14.5304 14.9164 14V2C14.9164 1.46957 14.7057 0.960859 14.3306 0.585786C13.9555 0.210714 13.4468 0 12.9164 0L4.91638 0ZM4.91638 1H12.9164C13.1816 1 13.436 1.10536 13.6235 1.29289C13.811 1.48043 13.9164 1.73478 13.9164 2V14C13.9164 14.2652 13.811 14.5196 13.6235 14.7071C13.436 14.8946 13.1816 15 12.9164 15H4.91638C4.65117 15 4.39681 14.8946 4.20928 14.7071C4.02174 14.5196 3.91638 14.2652 3.91638 14V2C3.91638 1.73478 4.02174 1.48043 4.20928 1.29289C4.39681 1.10536 4.65117 1 4.91638 1Z" fill="#1D1929"/>
</g>
<defs>
<clipPath id="clip0_16_125">
<rect width="16" height="16" fill="white" transform="translate(0.916382)"/>
</clipPath>
</defs>
</svg>
