<svg width="17" height="17" viewBox="0 0 17 17" fill="none" xmlns="http://www.w3.org/2000/svg">
<g clip-path="url(#clip0_16_130)">
<path d="M3.41638 8.5C3.54899 8.5 3.67617 8.44732 3.76994 8.35355C3.8637 8.25979 3.91638 8.13261 3.91638 8C3.91638 7.86739 3.8637 7.74021 3.76994 7.64645C3.67617 7.55268 3.54899 7.5 3.41638 7.5C3.28377 7.5 3.1566 7.55268 3.06283 7.64645C2.96906 7.74021 2.91638 7.86739 2.91638 8C2.91638 8.13261 2.96906 8.25979 3.06283 8.35355C3.1566 8.44732 3.28377 8.5 3.41638 8.5Z" fill="#1D1929"/>
<path d="M5.91638 1.5C5.38595 1.5 4.87724 1.71071 4.50217 2.08579C4.1271 2.46086 3.91638 2.96957 3.91638 3.5V5.5H2.91638C2.38595 5.5 1.87724 5.71071 1.50217 6.08579C1.1271 6.46086 0.916382 6.96957 0.916382 7.5L0.916382 10.5C0.916382 11.0304 1.1271 11.5391 1.50217 11.9142C1.87724 12.2893 2.38595 12.5 2.91638 12.5H3.91638V13.5C3.91638 14.0304 4.1271 14.5391 4.50217 14.9142C4.87724 15.2893 5.38595 15.5 5.91638 15.5H11.9164C12.4468 15.5 12.9555 15.2893 13.3306 14.9142C13.7057 14.5391 13.9164 14.0304 13.9164 13.5V12.5H14.9164C15.4468 12.5 15.9555 12.2893 16.3306 11.9142C16.7057 11.5391 16.9164 11.0304 16.9164 10.5V7.5C16.9164 6.96957 16.7057 6.46086 16.3306 6.08579C15.9555 5.71071 15.4468 5.5 14.9164 5.5H13.9164V3.5C13.9164 2.96957 13.7057 2.46086 13.3306 2.08579C12.9555 1.71071 12.4468 1.5 11.9164 1.5H5.91638ZM4.91638 3.5C4.91638 3.23478 5.02174 2.98043 5.20928 2.79289C5.39681 2.60536 5.65117 2.5 5.91638 2.5H11.9164C12.1816 2.5 12.436 2.60536 12.6235 2.79289C12.811 2.98043 12.9164 3.23478 12.9164 3.5V5.5H4.91638V3.5ZM5.91638 8.5C5.38595 8.5 4.87724 8.71071 4.50217 9.08579C4.1271 9.46086 3.91638 9.96957 3.91638 10.5V11.5H2.91638C2.65117 11.5 2.39681 11.3946 2.20928 11.2071C2.02174 11.0196 1.91638 10.7652 1.91638 10.5V7.5C1.91638 7.23478 2.02174 6.98043 2.20928 6.79289C2.39681 6.60536 2.65117 6.5 2.91638 6.5H14.9164C15.1816 6.5 15.436 6.60536 15.6235 6.79289C15.811 6.98043 15.9164 7.23478 15.9164 7.5V10.5C15.9164 10.7652 15.811 11.0196 15.6235 11.2071C15.436 11.3946 15.1816 11.5 14.9164 11.5H13.9164V10.5C13.9164 9.96957 13.7057 9.46086 13.3306 9.08579C12.9555 8.71071 12.4468 8.5 11.9164 8.5H5.91638ZM12.9164 10.5V13.5C12.9164 13.7652 12.811 14.0196 12.6235 14.2071C12.436 14.3946 12.1816 14.5 11.9164 14.5H5.91638C5.65117 14.5 5.39681 14.3946 5.20928 14.2071C5.02174 14.0196 4.91638 13.7652 4.91638 13.5V10.5C4.91638 10.2348 5.02174 9.98043 5.20928 9.79289C5.39681 9.60536 5.65117 9.5 5.91638 9.5H11.9164C12.1816 9.5 12.436 9.60536 12.6235 9.79289C12.811 9.98043 12.9164 10.2348 12.9164 10.5Z" fill="#1D1929"/>
</g>
<defs>
<clipPath id="clip0_16_130">
<rect width="16" height="16" fill="white" transform="translate(0.916382 0.5)"/>
</clipPath>
</defs>
</svg>
