<svg width="21" height="20" viewBox="0 0 21 20" fill="none" xmlns="http://www.w3.org/2000/svg">
<rect x="0.854614" width="20" height="20" rx="5" fill="#E1E8FF"/>
<path d="M13.3306 4H7.33057C6.93274 4 6.55121 4.15804 6.26991 4.43934C5.9886 4.72064 5.83057 5.10218 5.83057 5.5V14.5C5.83057 14.8978 5.9886 15.2794 6.26991 15.5607C6.55121 15.842 6.93274 16 7.33057 16H13.3306C13.7284 16 14.1099 15.842 14.3912 15.5607C14.6725 15.2794 14.8306 14.8978 14.8306 14.5V5.5C14.8306 5.10218 14.6725 4.72064 14.3912 4.43934C14.1099 4.15804 13.7284 4 13.3306 4ZM8.08057 7H12.5806C12.68 7 12.7754 7.03951 12.8457 7.10984C12.9161 7.18016 12.9556 7.27554 12.9556 7.375C12.9556 7.47446 12.9161 7.56984 12.8457 7.64016C12.7754 7.71049 12.68 7.75 12.5806 7.75H8.08057C7.98111 7.75 7.88573 7.71049 7.8154 7.64016C7.74508 7.56984 7.70557 7.47446 7.70557 7.375C7.70557 7.27554 7.74508 7.18016 7.8154 7.10984C7.88573 7.03951 7.98111 7 8.08057 7ZM7.70557 8.875C7.70557 8.77554 7.74508 8.68016 7.8154 8.60984C7.88573 8.53951 7.98111 8.5 8.08057 8.5H12.5806C12.68 8.5 12.7754 8.53951 12.8457 8.60984C12.9161 8.68016 12.9556 8.77554 12.9556 8.875C12.9556 8.97446 12.9161 9.06984 12.8457 9.14016C12.7754 9.21049 12.68 9.25 12.5806 9.25H8.08057C7.98111 9.25 7.88573 9.21049 7.8154 9.14016C7.74508 9.06984 7.70557 8.97446 7.70557 8.875ZM8.08057 10H12.5806C12.68 10 12.7754 10.0395 12.8457 10.1098C12.9161 10.1802 12.9556 10.2755 12.9556 10.375C12.9556 10.4745 12.9161 10.5698 12.8457 10.6402C12.7754 10.7105 12.68 10.75 12.5806 10.75H8.08057C7.98111 10.75 7.88573 10.7105 7.8154 10.6402C7.74508 10.5698 7.70557 10.4745 7.70557 10.375C7.70557 10.2755 7.74508 10.1802 7.8154 10.1098C7.88573 10.0395 7.98111 10 8.08057 10ZM8.08057 11.5H10.3306C10.43 11.5 10.5254 11.5395 10.5957 11.6098C10.6661 11.6802 10.7056 11.7755 10.7056 11.875C10.7056 11.9745 10.6661 12.0698 10.5957 12.1402C10.5254 12.2105 10.43 12.25 10.3306 12.25H8.08057C7.98111 12.25 7.88573 12.2105 7.8154 12.1402C7.74508 12.0698 7.70557 11.9745 7.70557 11.875C7.70557 11.7755 7.74508 11.6802 7.8154 11.6098C7.88573 11.5395 7.98111 11.5 8.08057 11.5Z" fill="#003CFF"/>
</svg>
