<svg width="21" height="21" viewBox="0 0 21 21" fill="none" xmlns="http://www.w3.org/2000/svg">
<g clip-path="url(#clip0_16_89)">
<path d="M8.60461 5.5V11.5H5.60461V5.5H8.60461ZM5.60461 4.75C5.4057 4.75 5.21494 4.82902 5.07428 4.96967C4.93363 5.11032 4.85461 5.30109 4.85461 5.5V11.5C4.85461 11.6989 4.93363 11.8897 5.07428 12.0303C5.21494 12.171 5.4057 12.25 5.60461 12.25H8.60461C8.80353 12.25 8.99429 12.171 9.13494 12.0303C9.2756 11.8897 9.35461 11.6989 9.35461 11.5V5.5C9.35461 5.30109 9.2756 5.11032 9.13494 4.96967C8.99429 4.82902 8.80353 4.75 8.60461 4.75H5.60461ZM15.3546 6.25V10H11.6046V6.25H15.3546ZM11.6046 5.5C11.4057 5.5 11.2149 5.57902 11.0743 5.71967C10.9336 5.86032 10.8546 6.05109 10.8546 6.25V10C10.8546 10.1989 10.9336 10.3897 11.0743 10.5303C11.2149 10.671 11.4057 10.75 11.6046 10.75H15.3546C15.5535 10.75 15.7443 10.671 15.8849 10.5303C16.0256 10.3897 16.1046 10.1989 16.1046 10V6.25C16.1046 6.05109 16.0256 5.86032 15.8849 5.71967C15.7443 5.57902 15.5535 5.5 15.3546 5.5H11.6046ZM8.60461 14.5V16H7.10461V14.5H8.60461ZM7.10461 13.75C6.9057 13.75 6.71494 13.829 6.57428 13.9697C6.43363 14.1103 6.35461 14.3011 6.35461 14.5V16C6.35461 16.1989 6.43363 16.3897 6.57428 16.5303C6.71494 16.671 6.9057 16.75 7.10461 16.75H8.60461C8.80353 16.75 8.99429 16.671 9.13494 16.5303C9.2756 16.3897 9.35461 16.1989 9.35461 16V14.5C9.35461 14.3011 9.2756 14.1103 9.13494 13.9697C8.99429 13.829 8.80353 13.75 8.60461 13.75H7.10461ZM16.1046 13V14.5H11.6046V13H16.1046ZM11.6046 12.25C11.4057 12.25 11.2149 12.329 11.0743 12.4697C10.9336 12.6103 10.8546 12.8011 10.8546 13V14.5C10.8546 14.6989 10.9336 14.8897 11.0743 15.0303C11.2149 15.171 11.4057 15.25 11.6046 15.25H16.1046C16.3035 15.25 16.4943 15.171 16.6349 15.0303C16.7756 14.8897 16.8546 14.6989 16.8546 14.5V13C16.8546 12.8011 16.7756 12.6103 16.6349 12.4697C16.4943 12.329 16.3035 12.25 16.1046 12.25H11.6046Z" fill="#ABABAB"/>
</g>
<defs>
<clipPath id="clip0_16_89">
<rect width="12" height="12" fill="white" transform="translate(4.85461 4.75)"/>
</clipPath>
</defs>
</svg>
