<svg width="17" height="16" viewBox="0 0 17 16" fill="none" xmlns="http://www.w3.org/2000/svg">
<g clip-path="url(#clip0_16_105)">
<path fill-rule="evenodd" clip-rule="evenodd" d="M11.8306 2C11.6336 2 11.4385 2.0388 11.2565 2.11418C11.0746 2.18957 10.9092 2.30006 10.7699 2.43934C10.6306 2.57863 10.5201 2.74399 10.4447 2.92598C10.3694 3.10797 10.3306 3.30302 10.3306 3.5C10.3306 3.69699 10.3694 3.89204 10.4447 4.07403C10.5201 4.25602 10.6306 4.42138 10.7699 4.56066C10.9092 4.69995 11.0746 4.81044 11.2565 4.88582C11.4385 4.96121 11.6336 5 11.8306 5C12.2284 5 12.6099 4.84197 12.8912 4.56066C13.1725 4.27936 13.3306 3.89783 13.3306 3.5C13.3306 3.10218 13.1725 2.72065 12.8912 2.43934C12.6099 2.15804 12.2284 2 11.8306 2ZM9.38057 3C9.49532 2.43486 9.80193 1.92677 10.2484 1.56181C10.6949 1.19686 11.2539 0.997498 11.8306 0.997498C12.4072 0.997498 12.9662 1.19686 13.4127 1.56181C13.8592 1.92677 14.1658 2.43486 14.2806 3H16.3306V4H14.2806C14.1658 4.56515 13.8592 5.07324 13.4127 5.43819C12.9662 5.80314 12.4072 6.00251 11.8306 6.00251C11.2539 6.00251 10.6949 5.80314 10.2484 5.43819C9.80193 5.07324 9.49532 4.56515 9.38057 4H0.330566V3H9.38057ZM4.83057 7C4.43274 7 4.05121 7.15804 3.76991 7.43934C3.4886 7.72065 3.33057 8.10218 3.33057 8.5C3.33057 8.89783 3.4886 9.27936 3.76991 9.56066C4.05121 9.84197 4.43274 10 4.83057 10C5.22839 10 5.60992 9.84197 5.89123 9.56066C6.17253 9.27936 6.33057 8.89783 6.33057 8.5C6.33057 8.10218 6.17253 7.72065 5.89123 7.43934C5.60992 7.15804 5.22839 7 4.83057 7ZM2.38057 8C2.49532 7.43486 2.80193 6.92677 3.24844 6.56181C3.69494 6.19686 4.25389 5.9975 4.83057 5.9975C5.40724 5.9975 5.96619 6.19686 6.4127 6.56181C6.8592 6.92677 7.16581 7.43486 7.28057 8H16.3306V9H7.28057C7.16581 9.56515 6.8592 10.0732 6.4127 10.4382C5.96619 10.8031 5.40724 11.0025 4.83057 11.0025C4.25389 11.0025 3.69494 10.8031 3.24844 10.4382C2.80193 10.0732 2.49532 9.56515 2.38057 9H0.330566V8H2.38057ZM11.8306 12C11.4327 12 11.0512 12.158 10.7699 12.4393C10.4886 12.7206 10.3306 13.1022 10.3306 13.5C10.3306 13.8978 10.4886 14.2794 10.7699 14.5607C11.0512 14.842 11.4327 15 11.8306 15C12.2284 15 12.6099 14.842 12.8912 14.5607C13.1725 14.2794 13.3306 13.8978 13.3306 13.5C13.3306 13.1022 13.1725 12.7206 12.8912 12.4393C12.6099 12.158 12.2284 12 11.8306 12ZM9.38057 13C9.49532 12.4349 9.80193 11.9268 10.2484 11.5618C10.6949 11.1969 11.2539 10.9975 11.8306 10.9975C12.4072 10.9975 12.9662 11.1969 13.4127 11.5618C13.8592 11.9268 14.1658 12.4349 14.2806 13H16.3306V14H14.2806C14.1658 14.5651 13.8592 15.0732 13.4127 15.4382C12.9662 15.8031 12.4072 16.0025 11.8306 16.0025C11.2539 16.0025 10.6949 15.8031 10.2484 15.4382C9.80193 15.0732 9.49532 14.5651 9.38057 14H0.330566V13H9.38057Z" fill="#1D1929"/>
</g>
<defs>
<clipPath id="clip0_16_105">
<rect width="16" height="16" fill="white" transform="translate(0.330566)"/>
</clipPath>
</defs>
</svg>
